<svg width="24" height="24" viewBox="0 0 24 24" fill="none" xmlns="http://www.w3.org/2000/svg">
<rect width="24" height="24" rx="12" fill="#F21818" fill-opacity="0.16"/>
<path d="M12 18C12.7881 18.001 13.5686 17.8462 14.2967 17.5446C15.0247 17.243 15.686 16.8005 16.2426 16.2426C16.8005 15.686 17.243 15.0247 17.5446 14.2967C17.8462 13.5686 18.001 12.7881 18 12C18.001 11.2119 17.8462 10.4314 17.5446 9.70335C17.243 8.97527 16.8005 8.31395 16.2426 7.7574C15.686 7.19945 15.0247 6.75697 14.2967 6.45538C13.5686 6.15379 12.7881 5.99903 12 6C11.2119 5.99903 10.4314 6.15379 9.70335 6.45538C8.97527 6.75697 8.31395 7.19945 7.7574 7.7574C7.19945 8.31395 6.75697 8.97527 6.45538 9.70335C6.15379 10.4314 5.99903 11.2119 6 12C5.99903 12.7881 6.15379 13.5686 6.45538 14.2967C6.75697 15.0247 7.19945 15.686 7.7574 16.2426C8.31395 16.8005 8.97527 17.243 9.70335 17.5446C10.4314 17.8462 11.2119 18.001 12 18Z" stroke="#F21818" stroke-linejoin="round"/>
<path d="M12.1768 15.3267C12.1299 15.3736 12.0663 15.3999 12 15.3999C11.9337 15.3999 11.8701 15.3736 11.8232 15.3267C11.7763 15.2798 11.75 15.2162 11.75 15.1499C11.75 15.0836 11.7763 15.02 11.8232 14.9731C11.8701 14.9262 11.9337 14.8999 12 14.8999C12.0663 14.8999 12.1299 14.9262 12.1768 14.9731C12.2237 15.02 12.25 15.0836 12.25 15.1499C12.25 15.2162 12.2237 15.2798 12.1768 15.3267Z" fill="black" stroke="#F21818"/>
<path d="M12 8.3999V13.1999" stroke="#F21818" stroke-linecap="round" stroke-linejoin="round"/>
</svg>
