<svg width="32" height="32" viewBox="0 0 32 32" fill="none" xmlns="http://www.w3.org/2000/svg">
<rect width="32" height="32" rx="16" fill="#F2A818" fill-opacity="0.16"/>
<path d="M16 7C20.9707 7 25 11.0293 25 16C25 20.9707 20.9707 25 16 25C11.0293 25 7 20.9707 7 16C7 11.0293 11.0293 7 16 7ZM16 8.8C14.0904 8.8 12.2591 9.55857 10.9088 10.9088C9.55857 12.2591 8.8 14.0904 8.8 16C8.8 17.9096 9.55857 19.7409 10.9088 21.0912C12.2591 22.4414 14.0904 23.2 16 23.2C17.9096 23.2 19.7409 22.4414 21.0912 21.0912C22.4414 19.7409 23.2 17.9096 23.2 16C23.2 14.0904 22.4414 12.2591 21.0912 10.9088C19.7409 9.55857 17.9096 8.8 16 8.8ZM16 10.6C16.2204 10.6 16.4332 10.681 16.5979 10.8274C16.7627 10.9739 16.8679 11.1758 16.8937 11.3947L16.9 11.5V15.6274L19.3363 18.0637C19.4977 18.2257 19.5914 18.443 19.5984 18.6715C19.6054 18.9001 19.5251 19.1227 19.3739 19.2943C19.2226 19.4658 19.0118 19.5733 18.7842 19.595C18.5565 19.6166 18.3292 19.5509 18.1483 19.411L18.0637 19.3363L15.3637 16.6363C15.2238 16.4963 15.134 16.3141 15.1081 16.1179L15.1 16V11.5C15.1 11.2613 15.1948 11.0324 15.3636 10.8636C15.5324 10.6948 15.7613 10.6 16 10.6Z" fill="#F2A818"/>
</svg>
