<svg width="32" height="32" viewBox="0 0 32 32" fill="none" xmlns="http://www.w3.org/2000/svg">
<rect width="32" height="32" rx="16" fill="#09D31D" fill-opacity="0.16"/>
<path d="M12.9392 19.8347L9.62542 16.4006C9.44686 16.2156 9.20467 16.1116 8.95215 16.1116C8.69962 16.1116 8.45744 16.2156 8.27888 16.4006C8.10032 16.5857 8 16.8366 8 17.0983C8 17.2279 8.02463 17.3562 8.07248 17.4759C8.12033 17.5956 8.19046 17.7044 8.27888 17.796L12.2708 21.9328C12.6432 22.3188 13.2448 22.3188 13.6173 21.9328L23.7211 11.4622C23.8997 11.2772 24 11.0262 24 10.7645C24 10.5028 23.8997 10.2519 23.7211 10.0668C23.5426 9.88179 23.3004 9.77783 23.0479 9.77783C22.7953 9.77783 22.5531 9.88179 22.3746 10.0668L12.9392 19.8347Z" fill="#09D31D"/>
</svg>
